<?xml version="1.0" encoding="UTF-8" standalone="no"?>
<!DOCTYPE svg PUBLIC "-//W3C//DTD SVG 1.1//EN" "http://www.w3.org/Graphics/SVG/1.1/DTD/svg11.dtd">
<svg width="100%" height="100%" viewBox="0 0 1418 1418" version="1.1" xmlns="http://www.w3.org/2000/svg" xmlns:xlink="http://www.w3.org/1999/xlink" xml:space="preserve" xmlns:serif="http://www.serif.com/" style="fill-rule:evenodd;clip-rule:evenodd;stroke-linejoin:round;stroke-miterlimit:2;">
    <g transform="matrix(1,0,0,1,-4875,0)">
        <g id="XGAME-black" serif:id="XGAME black" transform="matrix(1,0,0,1,-0.656168,0)">
            <rect x="4875.66" y="0" width="1417.32" height="1417.32" style="fill:none;"/>
            <g transform="matrix(5.35423,0,0,2.83532,3889.63,-1024.86)">
                <g transform="matrix(0.761667,0,0,1.43833,-223.353,-473.096)">
                    <path d="M670.365,747.22C652.801,756.303 634.032,774.102 624.46,785.152C610.37,801.418 588.489,802.826 583.708,764.884C578.927,726.941 605.262,691.455 619.298,676.055C633.334,660.655 647.548,667.681 647.548,667.681L675.756,680.762L658.776,626.246L703.451,715.803L669.804,747.22L670.365,747.22ZM627.885,725.093L627.885,735.511C627.885,737.02 628.484,738.466 629.551,739.533C630.618,740.6 632.064,741.199 633.573,741.199L638.085,741.199C639.594,741.199 641.041,740.6 642.107,739.533C643.174,738.466 643.773,737.02 643.773,735.511L643.773,725.093L654.191,725.093C655.7,725.093 657.147,724.494 658.214,723.427C659.28,722.36 659.88,720.913 659.88,719.405L659.88,714.893C659.88,713.384 659.28,711.937 658.214,710.87C657.147,709.804 655.7,709.204 654.191,709.204L643.773,709.204L643.773,698.786C643.773,697.278 643.174,695.831 642.107,694.764C641.041,693.697 639.594,693.098 638.085,693.098L633.573,693.098C632.064,693.098 630.618,693.697 629.551,694.764C628.484,695.831 627.885,697.278 627.885,698.786L627.885,709.204L617.467,709.204C615.958,709.204 614.511,709.804 613.445,710.87C612.378,711.937 611.778,713.384 611.778,714.893L611.778,719.405C611.778,720.913 612.378,722.36 613.445,723.427C614.511,724.494 615.958,725.093 617.467,725.093L627.885,725.093ZM717.013,717.976L749.908,677.019L770.046,667.681C770.046,667.681 784.26,660.655 798.295,676.055C812.331,691.455 838.667,726.941 833.886,764.884C829.105,802.826 807.224,801.418 793.134,785.152C783.563,774.103 764.796,756.306 747.233,747.222C745.507,746.329 761.917,781.857 761.917,781.857L717.013,717.976ZM773.454,716.596C773.454,711.996 769.72,708.261 765.12,708.261C760.52,708.261 756.785,711.996 756.785,716.596C756.785,721.196 760.52,724.93 765.12,724.93C769.72,724.93 773.454,721.196 773.454,716.596ZM781.389,724.53C776.789,724.53 773.054,728.265 773.054,732.865C773.054,737.465 776.789,741.199 781.389,741.199C785.989,741.199 789.723,737.465 789.723,732.865C789.723,728.265 785.989,724.53 781.389,724.53ZM805.992,716.596C805.992,711.996 802.258,708.261 797.658,708.261C793.058,708.261 789.323,711.996 789.323,716.596C789.323,721.196 793.058,724.93 797.658,724.93C802.258,724.93 805.992,721.196 805.992,716.596ZM781.389,691.992C776.789,691.992 773.054,695.727 773.054,700.327C773.054,704.927 776.789,708.661 781.389,708.661C785.989,708.661 789.723,704.927 789.723,700.327C789.723,695.727 785.989,691.992 781.389,691.992ZM718.075,743.804L717.788,743.511L710.093,745.533C709.243,745.756 708.35,745.756 707.501,745.533L698.126,743.069L708.69,727.429L718.075,743.804ZM701.641,691.946C707.167,696.416 712.693,695.907 718.22,692.112L708.797,704.837L701.641,691.946Z" style="fill:rgb(6,5,5);"/>
                </g>
                <g transform="matrix(0.761667,0,0,1.43833,-183.227,-60.6251)">
                    <path d="M557.909,519.386L570.092,519.386L576.44,530.396L582.592,519.386L594.653,519.386L583.52,536.72L595.702,555.177L583.276,555.177L576.22,543.678L569.14,555.177L556.786,555.177L569.14,536.524L557.909,519.386Z" style="fill:rgb(6,5,5);fill-rule:nonzero;"/>
                    <path d="M615.551,542.213L615.551,534.767L632.641,534.767L632.641,550.025C629.369,552.255 626.476,553.773 623.962,554.579C621.447,555.384 618.464,555.787 615.014,555.787C610.766,555.787 607.303,555.063 604.626,553.614C601.948,552.166 599.873,550.009 598.4,547.145C596.927,544.28 596.191,540.992 596.191,537.281C596.191,533.375 596.996,529.977 598.608,527.088C600.219,524.199 602.579,522.006 605.688,520.509C608.113,519.353 611.376,518.775 615.478,518.775C619.433,518.775 622.391,519.133 624.352,519.85C626.314,520.566 627.941,521.677 629.235,523.182C630.529,524.688 631.502,526.596 632.153,528.907L621.484,530.812C621.044,529.461 620.3,528.427 619.25,527.711C618.2,526.995 616.861,526.637 615.234,526.637C612.809,526.637 610.876,527.479 609.435,529.164C607.995,530.848 607.275,533.513 607.275,537.159C607.275,541.033 608.003,543.8 609.46,545.46C610.916,547.12 612.947,547.95 615.551,547.95C616.788,547.95 617.968,547.771 619.091,547.413C620.214,547.055 621.5,546.445 622.949,545.582L622.949,542.213L615.551,542.213Z" style="fill:rgb(6,5,5);fill-rule:nonzero;"/>
                    <path d="M661.23,549.269L648.632,549.269L646.899,555.177L635.595,555.177L649.047,519.386L661.108,519.386L674.56,555.177L662.988,555.177L661.23,549.269ZM658.91,541.529C659.566,539.385 654.955,528.663 654.955,528.663L651.025,541.529C651.025,541.529 658.255,543.674 658.91,541.529Z" style="fill:rgb(6,5,5);fill-rule:nonzero;"/>
                    <path d="M677.978,519.386L692.529,519.386L698.144,541.163L703.735,519.386L718.237,519.386L718.237,555.177L709.203,555.177L709.203,527.882L702.197,555.177L694.018,555.177L687.035,527.882L687.035,555.177L677.978,555.177L677.978,519.386Z" style="fill:rgb(6,5,5);fill-rule:nonzero;"/>
                    <path d="M725.268,519.386L754.907,519.386L754.907,527.027L736.352,527.027L736.352,532.716L753.564,532.716L753.564,540.016L736.352,540.016L736.352,547.071L755.444,547.071L755.444,555.177L725.268,555.177L725.268,519.386Z" style="fill:rgb(6,5,5);fill-rule:nonzero;"/>
                </g>
                <g transform="matrix(1.20427,0,0,1.20427,-272.172,-144.893)">
                    <g transform="matrix(0.190418,0,0,0.317931,519.938,757.124)">
                        <path d="M0,0C6.09,3.839 8.961,7.906 10.875,14.813C11.289,17.785 11.353,20.689 11.313,23.688L11.292,26.071C11.087,33.522 9.818,39.71 4.563,45.25C-2.836,49.551 -8.495,50.834 -17.125,49.813C-23.049,48.088 -26.744,44.885 -30.125,39.813C-32.174,34.127 -32.491,28.888 -32.5,22.875L-32.574,20.283C-32.602,14.3 -31.514,9.801 -28.125,4.813C-20.781,-2.164 -9.53,-3.719 0,0ZM-11.313,5.563C-15.125,5.813 -15.125,5.813 -16.125,6.813C-19.987,11.362 -20.6,14.637 -20.574,20.561L-20.5,23.375C-20.495,26.871 -20.469,30.331 -20.125,33.813C-19.065,37.192 -18.177,39.88 -15.125,41.813C-10.665,42.41 -7.928,42.348 -4.125,39.813C-1.377,34.89 -0.759,30.888 -0.764,25.283L-0.813,22.625C-0.791,16.558 -0.395,11.752 -4.75,7.063C-7.26,5.742 -8.529,5.602 -11.313,5.563Z" style="fill:rgb(6,5,5);"/>
                    </g>
                    <g transform="matrix(0.190418,0,0,0.317931,446.984,751.659)">
                        <path d="M0,0C5.466,-0.103 10.931,-0.206 16.563,-0.313C18.274,-0.358 19.985,-0.404 21.748,-0.45C23.125,-0.465 24.502,-0.478 25.879,-0.488C26.926,-0.527 26.926,-0.527 27.995,-0.566C33.659,-0.571 36.947,1.303 41,5C45.652,11.074 45.945,18.66 45,26C43.447,32.055 41.539,36.677 36,40C35.172,40.538 35.172,40.538 34.328,41.086C30.999,42.393 27.767,42.211 24.25,42.125C23.553,42.116 22.855,42.107 22.137,42.098C20.424,42.074 18.712,42.038 17,42L17,34C17.771,33.939 18.542,33.879 19.336,33.816C20.339,33.733 21.342,33.649 22.375,33.563C23.373,33.481 24.37,33.4 25.398,33.316C27.979,33.15 27.979,33.15 30,32C31.981,28.135 32.297,24.808 32.313,20.5C32.329,19.397 32.346,18.293 32.363,17.156C32.161,13.489 32.161,13.489 29,9C23.72,8.67 18.44,8.34 13,8L13,67L0,67L0,0Z" style="fill:rgb(6,5,5);fill-rule:nonzero;"/>
                    </g>
                    <g transform="matrix(0.190418,0,0,0.317931,464.489,756.653)">
                        <path d="M0,0C1.744,0.011 1.744,0.011 3.523,0.023C4.982,0.05 6.442,0.077 7.945,0.105C12.607,0.167 17.268,0.229 22.07,0.293L22.07,51.293L10.07,51.293L10.07,7.293C3.635,7.788 3.635,7.788 -2.93,8.293C-6.638,13.237 -7.055,15.798 -7.063,21.828C-7.064,22.885 -7.065,23.941 -7.066,25.029C-7.063,26.127 -7.059,27.225 -7.055,28.355C-7.059,29.457 -7.062,30.558 -7.066,31.693C-7.064,33.276 -7.064,33.276 -7.063,34.891C-7.061,35.855 -7.06,36.819 -7.059,37.813C-7.033,40.427 -7.033,40.427 -5.93,43.293L5.07,43.293L5.07,51.293C2.674,51.374 0.28,51.434 -2.117,51.48C-3.127,51.518 -3.127,51.518 -4.158,51.557C-8.685,51.623 -11.468,51.255 -14.93,48.293C-20.129,42.375 -20.633,36.944 -20.367,29.293C-20.361,28.347 -20.356,27.401 -20.35,26.426C-20.23,19.545 -19.884,12.24 -15.68,6.48C-15.303,5.938 -14.927,5.395 -14.539,4.836C-10.25,0.724 -5.76,-0.076 0,0Z" style="fill:rgb(6,5,5);fill-rule:nonzero;"/>
                    </g>
                    <g transform="matrix(0.190418,0,0,0.317931,498.096,756.715)">
                        <path d="M0,0C1.694,0.004 1.694,0.004 3.423,0.008C5.574,0.021 5.574,0.021 7.77,0.035C12.328,0.056 16.886,0.076 21.582,0.098L21.582,51.098L9.582,51.098L9.582,7.098C-1.704,6.737 -1.704,6.737 -5.418,11.098C-6.821,13.904 -6.548,16.248 -6.551,19.383C-6.552,20.635 -6.553,21.887 -6.555,23.178C-6.551,24.492 -6.547,25.806 -6.543,27.16C-6.547,28.478 -6.551,29.796 -6.555,31.154C-6.553,33.031 -6.553,33.031 -6.551,34.945C-6.55,36.1 -6.549,37.255 -6.547,38.446C-6.719,41.02 -6.719,41.02 -5.418,42.098C-3.736,42.331 -2.047,42.51 -0.355,42.66C0.564,42.744 1.483,42.828 2.43,42.914C3.495,43.005 3.495,43.005 4.582,43.098L4.582,51.098C2.206,51.206 -0.165,51.285 -2.543,51.348C-3.208,51.381 -3.873,51.415 -4.559,51.449C-9.711,51.55 -12.557,50.477 -16.418,47.098C-20.722,41.474 -19.895,34.482 -19.855,27.723C-19.875,26.529 -19.895,25.335 -19.916,24.105C-19.912,16.474 -19.463,10.32 -13.935,4.55C-9.344,0.512 -5.942,-0.027 0,0Z" style="fill:rgb(6,5,5);fill-rule:nonzero;"/>
                    </g>
                    <g transform="matrix(0.190418,0,0,0.317931,469.834,756.746)">
                        <path d="M0,0L13,0C13.626,1.914 14.253,3.829 14.898,5.801C15.51,7.658 16.122,9.514 16.735,11.371C17.16,12.659 17.583,13.948 18.004,15.238C18.61,17.094 19.223,18.947 19.836,20.801C20.203,21.916 20.569,23.032 20.947,24.181C21.932,27.146 21.932,27.146 24,30C24.454,28.819 24.454,28.819 24.918,27.613C25.799,25.323 26.681,23.032 27.563,20.742C28.506,18.291 29.442,15.838 30.375,13.383C30.808,12.246 31.241,11.109 31.688,9.938C32.083,8.895 32.479,7.852 32.887,6.777C34,4 34,4 36,0L47,0C46.592,4.901 45.47,8.114 43.195,12.524C40.703,17.688 38.75,23.091 36.688,28.438C35.714,30.942 34.738,33.446 33.762,35.949C33.055,37.762 33.055,37.762 32.333,39.611C30.348,44.657 28.29,49.672 26.194,54.674C24.598,58.493 23.11,62.34 21.669,66.22C20.551,69.195 19.274,72.089 18,75L8,75C8.632,69.953 10.143,65.628 12,60.938C14.995,53.329 16.68,48.693 13.75,40.688C13.423,39.749 13.423,39.749 13.09,38.791C11.969,35.596 10.785,32.429 9.59,29.262C7.576,23.914 5.696,18.52 3.813,13.125C3.444,12.081 3.076,11.037 2.697,9.961C2.35,8.966 2.002,7.971 1.645,6.945C1.17,5.592 1.17,5.592 0.687,4.211C0,2 0,2 0,0Z" style="fill:rgb(6,5,5);fill-rule:nonzero;"/>
                    </g>
                    <g transform="matrix(0.190418,0,0,0.317931,483.035,751.628)">
                        <path d="M0,0C1.028,0.003 2.056,0.006 3.115,0.01C4.723,0.022 4.723,0.022 6.363,0.035C7.447,0.04 8.53,0.044 9.646,0.049C12.323,0.061 14.999,0.077 17.676,0.098L17.676,7.098C17.116,7.112 16.556,7.127 15.979,7.142C13.44,7.216 10.902,7.313 8.363,7.41C7.482,7.433 6.601,7.455 5.693,7.479C4.422,7.532 4.422,7.532 3.125,7.586C2.345,7.612 1.564,7.638 0.76,7.665C-1.833,8.203 -2.715,9.024 -4.324,11.098C-5.539,14.741 -5.936,18.306 -5.324,22.098C-4.233,24.398 -4.233,24.398 -2.324,26.098C0.136,26.65 0.136,26.65 2.863,26.598C9.659,26.993 14.332,28.693 19.113,33.598C22.921,39.69 22.227,47.157 21.676,54.098C20.389,58.907 18.5,61.441 14.613,64.535C10.533,66.706 7.692,67.219 3.133,67.195C2.06,67.192 0.987,67.189 -0.119,67.186C-1.239,67.177 -2.358,67.169 -3.512,67.16C-4.643,67.156 -5.774,67.151 -6.939,67.146C-9.734,67.135 -12.529,67.118 -15.324,67.098L-15.324,59.098C-14.739,59.088 -14.154,59.079 -13.552,59.069C-10.892,59.016 -8.233,58.932 -5.574,58.848C-4.654,58.833 -3.733,58.819 -2.785,58.805C2.523,58.618 2.523,58.618 7.301,56.504C9.209,53.164 9.067,50.666 8.926,46.848C8.872,44.953 8.872,44.953 8.816,43.02C8.77,42.055 8.724,41.091 8.676,40.098C5.066,38.452 2.309,37.939 -1.637,37.91C-7.129,37.509 -9.848,35.74 -13.766,31.984C-17.223,27.799 -17.619,24.653 -17.637,19.223C-17.653,18.029 -17.67,16.835 -17.688,15.605C-17.221,11.1 -15.892,7.817 -12.824,4.453C-8.386,0.997 -5.552,-0.031 0,0Z" style="fill:rgb(6,5,5);fill-rule:nonzero;"/>
                    </g>
                    <g transform="matrix(0.190418,0,0,0.317931,523.532,756.746)">
                        <path d="M0,0C6.713,-0.124 6.713,-0.124 13.563,-0.25C14.961,-0.286 16.359,-0.323 17.799,-0.36C24.735,-0.422 29.478,-0.388 35,4C36.742,5.816 36.742,5.816 37.875,7.563C38.459,8.431 38.459,8.431 39.055,9.316C41.425,13.539 41.128,17.702 41.098,22.387C41.096,23.204 41.095,24.021 41.093,24.863C41.088,27.471 41.075,30.079 41.063,32.688C41.057,34.456 41.053,36.225 41.049,37.994C41.038,42.329 41.021,46.665 41,51L29,51C28.975,49.905 28.95,48.811 28.924,47.683C28.83,43.611 28.73,39.539 28.628,35.467C28.584,33.706 28.543,31.946 28.503,30.185C28.445,27.651 28.381,25.116 28.316,22.582C28.3,21.799 28.283,21.015 28.266,20.208C28.162,16.367 27.914,12.738 27,9C21.909,7.555 21.909,7.555 12,8C11.67,21.86 11.34,35.72 11,50L0,50L0,0Z" style="fill:rgb(6,5,5);fill-rule:nonzero;"/>
                    </g>
                    <g transform="matrix(0.190418,0,0,0.317931,503.919,753.885)">
                        <path d="M0,0L13,0L13,9L25,9L25,16L13,16C13.118,20.824 13.242,25.648 13.372,30.471C13.416,32.114 13.457,33.756 13.497,35.398C13.555,37.754 13.619,40.109 13.684,42.465C13.7,43.203 13.717,43.942 13.734,44.703C13.535,48.143 13.535,48.143 15,51C16.347,51.231 17.704,51.412 19.063,51.563C20.362,51.707 21.661,51.851 23,52L23,60C11.363,60.622 11.363,60.622 6.438,58.375C1.888,53.942 -0.212,51.121 -0.454,44.729C-0.453,42.645 -0.431,40.56 -0.391,38.477C-0.385,37.375 -0.379,36.274 -0.373,35.139C-0.351,31.634 -0.301,28.13 -0.25,24.625C-0.23,22.244 -0.212,19.862 -0.195,17.48C-0.151,11.653 -0.082,5.827 0,0Z" style="fill:rgb(6,5,5);fill-rule:nonzero;"/>
                    </g>
                    <g transform="matrix(0.190418,0,0,0.317931,488.876,754.203)">
                        <path d="M0,0L11,0L11,8L24,8L24,15L12,15C12.33,26.55 12.66,38.1 13,50C15.64,50.33 18.28,50.66 21,51L21,59C10.359,59.62 10.359,59.62 5.438,57.375C1.249,53.294 -0.168,49.603 -0.341,43.821C-0.34,41.779 -0.323,39.737 -0.293,37.695C-0.289,36.616 -0.284,35.537 -0.28,34.425C-0.263,30.992 -0.226,27.559 -0.188,24.125C-0.172,21.792 -0.159,19.458 -0.146,17.125C-0.113,11.416 -0.062,5.708 0,0Z" style="fill:rgb(6,5,5);fill-rule:nonzero;"/>
                    </g>
                    <g transform="matrix(0.190418,0,0,0.317931,456.886,751.659)">
                        <rect x="0" y="0" width="12" height="67" style="fill:rgb(6,5,5);fill-rule:nonzero;"/>
                    </g>
                    <g transform="matrix(0.190418,0,0,0.317931,510.012,756.746)">
                        <rect x="0" y="0" width="12" height="51" style="fill:rgb(6,5,5);fill-rule:nonzero;"/>
                    </g>
                    <g transform="matrix(0.190418,0,0,0.317931,510.012,751.659)">
                        <rect x="0" y="0" width="12" height="10" style="fill:rgb(6,5,5);fill-rule:nonzero;"/>
                    </g>
                </g>
            </g>
        </g>
    </g>
</svg>
